<svg width="51" height="51" viewBox="0 0 51 51" fill="none" xmlns="http://www.w3.org/2000/svg">
<g clip-path="url(#clip0_10612_517)">
<mask id="mask0_10612_517" style="mask-type:luminance" maskUnits="userSpaceOnUse" x="0" y="0" width="51" height="51">
<path d="M51 0H0V51H51V0Z" fill="white"/>
<path d="M25.5 36.6048C31.633 36.6048 36.6048 31.633 36.6048 25.5C36.6048 19.367 31.633 14.3952 25.5 14.3952C19.3669 14.3952 14.3951 19.367 14.3951 25.5C14.3951 31.633 19.3669 36.6048 25.5 36.6048Z" fill="black"/>
<path d="M25.5 25.5L42.3629 8.47258H51V42.3629H42.3629L25.5 25.5Z" fill="black"/>
</mask>
<g mask="url(#mask0_10612_517)">
<path d="M25.5 44.0081C35.7217 44.0081 44.0081 35.7217 44.0081 25.5C44.0081 15.2783 35.7217 6.99194 25.5 6.99194C15.2783 6.99194 6.99194 15.2783 6.99194 25.5C6.99194 35.7217 15.2783 44.0081 25.5 44.0081Z" fill="url(#paint0_linear_10612_517)"/>
</g>
<path d="M31.7023 30.271H43.1526V19.7419L40.0597 21.3871L37.4274 19.7419L34.7952 21.3871L31.7023 19.7419V30.271Z" fill="#EEEE66"/>
</g>
<defs>
<linearGradient id="paint0_linear_10612_517" x1="6.95459" y1="6.95455" x2="33.2273" y2="30.9091" gradientUnits="userSpaceOnUse">
<stop stop-color="#E64980"/>
<stop offset="1" stop-color="#6A7DD7"/>
</linearGradient>
<clipPath id="clip0_10612_517">
<rect width="51" height="51" fill="white"/>
</clipPath>
</defs>
</svg>
