<svg width="279" height="47" viewBox="0 0 279 47" fill="none" xmlns="http://www.w3.org/2000/svg">
<path d="M3.54834 42.5806H40.4516V7.09677L31.2258 12.4194L22 7.09677L12.7741 12.4194L3.54834 7.09677V42.5806Z" fill="#EEEE66"/>
<path d="M59.6533 37.9C57.6266 37.9 55.8133 37.42 54.2133 36.46C52.6133 35.5 51.3466 34.1933 50.4133 32.54C49.5066 30.8867 49.0533 29.0067 49.0533 26.9C49.0533 24.82 49.5066 22.9533 50.4133 21.3C51.3466 19.62 52.6133 18.3 54.2133 17.34C55.8133 16.38 57.6266 15.9 59.6533 15.9C61.5466 15.9 63.2799 16.2467 64.8533 16.94C66.4266 17.6333 67.6533 18.5933 68.5333 19.82L65.4133 23.58C65.0399 23.0733 64.5733 22.62 64.0133 22.22C63.4533 21.7933 62.8399 21.46 62.1733 21.22C61.5333 20.98 60.8666 20.86 60.1733 20.86C59.0799 20.86 58.1066 21.1267 57.2533 21.66C56.4266 22.1667 55.7733 22.8733 55.2933 23.78C54.8133 24.6867 54.5733 25.7267 54.5733 26.9C54.5733 28.0467 54.8133 29.0733 55.2933 29.98C55.7999 30.86 56.4799 31.58 57.3333 32.14C58.1866 32.6733 59.1466 32.94 60.2133 32.94C60.9066 32.94 61.5599 32.8467 62.1733 32.66C62.7866 32.4467 63.3599 32.14 63.8933 31.74C64.4533 31.34 64.9599 30.86 65.4133 30.3L68.4933 34.06C67.5866 35.2067 66.3333 36.14 64.7333 36.86C63.1333 37.5533 61.4399 37.9 59.6533 37.9ZM81.973 37.9C79.813 37.9 77.8796 37.4333 76.173 36.5C74.493 35.54 73.1596 34.2333 72.173 32.58C71.213 30.9267 70.733 29.0333 70.733 26.9C70.733 24.7667 71.213 22.8867 72.173 21.26C73.1596 19.6067 74.493 18.3 76.173 17.34C77.8796 16.38 79.813 15.9 81.973 15.9C84.1063 15.9 86.013 16.38 87.693 17.34C89.3996 18.3 90.733 19.6067 91.693 21.26C92.653 22.8867 93.133 24.7667 93.133 26.9C93.133 29.0333 92.653 30.9267 91.693 32.58C90.733 34.2333 89.3996 35.54 87.693 36.5C86.013 37.4333 84.1063 37.9 81.973 37.9ZM81.973 32.94C83.013 32.94 83.9463 32.6867 84.773 32.18C85.5996 31.6467 86.2396 30.9267 86.693 30.02C87.173 29.0867 87.413 28.0467 87.413 26.9C87.413 25.7267 87.173 24.6867 86.693 23.78C86.2396 22.8467 85.5996 22.1267 84.773 21.62C83.9463 21.0867 83.013 20.82 81.973 20.82C80.9063 20.82 79.9596 21.0867 79.133 21.62C78.3063 22.1533 77.653 22.8733 77.173 23.78C76.693 24.6867 76.4663 25.7267 76.493 26.9C76.4663 28.0467 76.693 29.0867 77.173 30.02C77.653 30.9267 78.3063 31.6467 79.133 32.18C79.9596 32.6867 80.9063 32.94 81.973 32.94ZM104.686 37.9C103.14 37.9 101.806 37.5667 100.686 36.9C99.5931 36.2067 98.7397 35.2333 98.1264 33.98C97.5397 32.7 97.2464 31.1667 97.2464 29.38V16.34H102.926V28.46C102.926 29.42 103.086 30.26 103.406 30.98C103.726 31.6733 104.18 32.2067 104.766 32.58C105.353 32.9533 106.073 33.14 106.926 33.14C107.54 33.14 108.113 33.0467 108.646 32.86C109.18 32.6467 109.633 32.3533 110.006 31.98C110.38 31.6067 110.673 31.1667 110.886 30.66C111.1 30.1533 111.206 29.6067 111.206 29.02V16.34H116.886V37.5H111.486L111.286 33.14L112.326 32.66C112.006 33.6467 111.473 34.54 110.726 35.34C109.98 36.14 109.086 36.7667 108.046 37.22C107.006 37.6733 105.886 37.9 104.686 37.9ZM122.602 37.5V16.34H128.082L128.282 23.14L127.322 21.74C127.642 20.6467 128.162 19.66 128.882 18.78C129.602 17.8733 130.442 17.1667 131.402 16.66C132.388 16.1533 133.415 15.9 134.482 15.9C134.935 15.9 135.375 15.94 135.802 16.02C136.228 16.1 136.588 16.1933 136.882 16.3L135.362 22.54C135.042 22.38 134.655 22.2467 134.202 22.14C133.748 22.0067 133.282 21.94 132.802 21.94C132.162 21.94 131.562 22.06 131.002 22.3C130.468 22.5133 130.002 22.8333 129.602 23.26C129.202 23.66 128.882 24.14 128.642 24.7C128.428 25.26 128.322 25.8733 128.322 26.54V37.5H122.602ZM147.261 37.9C145.287 37.9 143.527 37.58 141.981 36.94C140.461 36.2733 139.234 35.3667 138.301 34.22L141.821 31.18C142.647 32.06 143.567 32.7 144.581 33.1C145.594 33.4733 146.607 33.66 147.621 33.66C148.021 33.66 148.381 33.62 148.701 33.54C149.047 33.4333 149.341 33.3 149.581 33.14C149.821 32.9533 149.994 32.74 150.101 32.5C150.234 32.2333 150.301 31.9533 150.301 31.66C150.301 31.0733 150.061 30.6067 149.581 30.26C149.314 30.1267 148.901 29.9667 148.341 29.78C147.781 29.5667 147.061 29.34 146.181 29.1C144.821 28.7533 143.661 28.3533 142.701 27.9C141.767 27.42 141.021 26.8867 140.461 26.3C139.981 25.74 139.607 25.14 139.341 24.5C139.101 23.8333 138.981 23.1 138.981 22.3C138.981 21.34 139.194 20.4733 139.621 19.7C140.047 18.9 140.634 18.22 141.381 17.66C142.154 17.1 143.034 16.6733 144.021 16.38C145.007 16.06 146.047 15.9 147.141 15.9C148.234 15.9 149.301 16.0333 150.341 16.3C151.381 16.5667 152.341 16.9533 153.221 17.46C154.127 17.94 154.914 18.5133 155.581 19.18L152.541 22.54C152.061 22.0867 151.514 21.6733 150.901 21.3C150.314 20.9267 149.701 20.6333 149.061 20.42C148.421 20.2067 147.847 20.1 147.341 20.1C146.887 20.1 146.474 20.14 146.101 20.22C145.754 20.3 145.461 20.42 145.221 20.58C144.981 20.74 144.794 20.9533 144.661 21.22C144.554 21.46 144.501 21.7267 144.501 22.02C144.501 22.3133 144.567 22.5933 144.701 22.86C144.861 23.1267 145.074 23.3533 145.341 23.54C145.634 23.7 146.061 23.8867 146.621 24.1C147.207 24.3133 147.994 24.5533 148.981 24.82C150.261 25.1667 151.341 25.5533 152.221 25.98C153.127 26.4067 153.847 26.9 154.381 27.46C154.834 27.94 155.167 28.4867 155.381 29.1C155.594 29.7133 155.701 30.3933 155.701 31.14C155.701 32.4467 155.327 33.62 154.581 34.66C153.861 35.6733 152.861 36.4733 151.581 37.06C150.301 37.62 148.861 37.9 147.261 37.9ZM169.79 37.9C167.497 37.9 165.497 37.4333 163.79 36.5C162.083 35.5667 160.75 34.2867 159.79 32.66C158.83 31.0333 158.35 29.1667 158.35 27.06C158.35 25.4333 158.617 23.94 159.15 22.58C159.683 21.22 160.43 20.0467 161.39 19.06C162.35 18.0467 163.483 17.2733 164.79 16.74C166.123 16.18 167.563 15.9 169.11 15.9C170.55 15.9 171.883 16.1667 173.11 16.7C174.337 17.2067 175.39 17.94 176.27 18.9C177.177 19.8333 177.87 20.94 178.35 22.22C178.83 23.5 179.043 24.9 178.99 26.42L178.95 28.18H161.95L161.03 24.7H174.27L173.63 25.42V24.54C173.577 23.82 173.337 23.1667 172.91 22.58C172.51 21.9933 171.99 21.54 171.35 21.22C170.71 20.9 169.99 20.74 169.19 20.74C168.017 20.74 167.017 20.9667 166.19 21.42C165.39 21.8733 164.777 22.54 164.35 23.42C163.923 24.3 163.71 25.3667 163.71 26.62C163.71 27.9 163.977 29.0067 164.51 29.94C165.07 30.8733 165.843 31.6067 166.83 32.14C167.843 32.6467 169.03 32.9 170.39 32.9C171.323 32.9 172.177 32.7533 172.95 32.46C173.723 32.1667 174.55 31.66 175.43 30.94L178.15 34.74C177.377 35.4333 176.523 36.02 175.59 36.5C174.657 36.9533 173.697 37.3 172.71 37.54C171.723 37.78 170.75 37.9 169.79 37.9ZM183.148 37.5V16.34H188.628L188.748 20.38L187.908 20.54C188.201 19.8467 188.588 19.22 189.068 18.66C189.548 18.1 190.108 17.62 190.748 17.22C191.414 16.82 192.108 16.5133 192.828 16.3C193.548 16.06 194.268 15.94 194.988 15.94C196.081 15.94 197.068 16.1133 197.948 16.46C198.828 16.8067 199.574 17.3533 200.188 18.1C200.801 18.82 201.281 19.78 201.628 20.98L200.748 20.9L201.028 20.26C201.374 19.62 201.814 19.0467 202.348 18.54C202.881 18.0067 203.481 17.5533 204.148 17.18C204.814 16.78 205.508 16.4733 206.228 16.26C206.948 16.0467 207.654 15.94 208.348 15.94C210.001 15.94 211.374 16.2733 212.468 16.94C213.561 17.58 214.374 18.5533 214.908 19.86C215.468 21.1667 215.748 22.7667 215.748 24.66V37.5H210.068V25.06C210.068 24.1 209.934 23.3133 209.668 22.7C209.401 22.0867 209.014 21.6333 208.508 21.34C208.001 21.02 207.348 20.86 206.548 20.86C205.934 20.86 205.361 20.9667 204.828 21.18C204.321 21.3667 203.868 21.6467 203.468 22.02C203.094 22.3667 202.801 22.78 202.588 23.26C202.374 23.74 202.268 24.2733 202.268 24.86V37.5H196.588V25.02C196.588 24.14 196.441 23.3933 196.148 22.78C195.881 22.14 195.494 21.66 194.988 21.34C194.481 21.02 193.854 20.86 193.108 20.86C192.494 20.86 191.921 20.9667 191.388 21.18C190.881 21.3667 190.441 21.6467 190.068 22.02C189.694 22.3667 189.388 22.78 189.148 23.26C188.934 23.74 188.828 24.26 188.828 24.82V37.5H183.148ZM229.076 37.9C227.316 37.9 225.73 37.42 224.316 36.46C222.903 35.5 221.783 34.1933 220.956 32.54C220.13 30.8867 219.716 28.9933 219.716 26.86C219.716 24.7267 220.13 22.8467 220.956 21.22C221.81 19.5667 222.956 18.2733 224.396 17.34C225.836 16.38 227.476 15.9 229.316 15.9C230.356 15.9 231.303 16.06 232.156 16.38C233.036 16.6733 233.796 17.0867 234.436 17.62C235.103 18.1533 235.663 18.7667 236.116 19.46C236.57 20.1533 236.89 20.9 237.076 21.7L235.876 21.5V16.34H241.516V37.5H235.796V32.42L237.076 32.3C236.863 33.0467 236.516 33.7533 236.036 34.42C235.556 35.0867 234.956 35.6867 234.236 36.22C233.543 36.7267 232.756 37.14 231.876 37.46C230.996 37.7533 230.063 37.9 229.076 37.9ZM230.636 32.98C231.703 32.98 232.636 32.7267 233.436 32.22C234.236 31.7133 234.85 31.0067 235.276 30.1C235.73 29.1667 235.956 28.0867 235.956 26.86C235.956 25.66 235.73 24.6067 235.276 23.7C234.85 22.7933 234.236 22.0867 233.436 21.58C232.636 21.0467 231.703 20.78 230.636 20.78C229.596 20.78 228.676 21.0467 227.876 21.58C227.103 22.0867 226.49 22.7933 226.036 23.7C225.583 24.6067 225.356 25.66 225.356 26.86C225.356 28.0867 225.583 29.1667 226.036 30.1C226.49 31.0067 227.103 31.7133 227.876 32.22C228.676 32.7267 229.596 32.98 230.636 32.98ZM247.211 46.3V16.34H252.691L252.851 21.1L251.811 20.74C251.998 19.8867 252.451 19.1 253.171 18.38C253.918 17.66 254.838 17.0733 255.931 16.62C257.024 16.1667 258.171 15.94 259.371 15.94C261.211 15.94 262.838 16.42 264.251 17.38C265.691 18.3133 266.824 19.6067 267.651 21.26C268.504 22.8867 268.931 24.7667 268.931 26.9C268.931 29.0067 268.518 30.8867 267.691 32.54C266.864 34.1933 265.731 35.5 264.291 36.46C262.851 37.3933 261.211 37.86 259.371 37.86C258.144 37.86 256.971 37.6333 255.851 37.18C254.758 36.7 253.824 36.0733 253.051 35.3C252.278 34.5267 251.798 33.7 251.611 32.82L252.931 32.26V46.3H247.211ZM258.091 32.98C259.131 32.98 260.051 32.7267 260.851 32.22C261.651 31.7133 262.278 31.0067 262.731 30.1C263.184 29.1667 263.411 28.1 263.411 26.9C263.411 25.7 263.184 24.6467 262.731 23.74C262.278 22.8333 261.651 22.1267 260.851 21.62C260.078 21.1133 259.158 20.86 258.091 20.86C257.024 20.86 256.091 21.1133 255.291 21.62C254.491 22.1 253.864 22.8067 253.411 23.74C252.958 24.6467 252.731 25.7 252.731 26.9C252.731 28.1 252.958 29.1667 253.411 30.1C253.864 31.0067 254.491 31.7133 255.291 32.22C256.091 32.7267 257.024 32.98 258.091 32.98Z" fill="url(#paint0_linear_10612_536)"/>
<defs>
<linearGradient id="paint0_linear_10612_536" x1="123" y1="-22.5" x2="195.5" y2="76" gradientUnits="userSpaceOnUse">
<stop stop-color="#E64980"/>
<stop offset="1" stop-color="#6A7DD7"/>
</linearGradient>
</defs>
</svg>
