<svg width="50" height="50" viewBox="0 0 50 50" fill="none" xmlns="http://www.w3.org/2000/svg">
<g clip-path="url(#clip0_10609_517)">
<mask id="mask0_10609_517" style="mask-type:luminance" maskUnits="userSpaceOnUse" x="0" y="0" width="50" height="50">
<path d="M50 0H0V50H50V0Z" fill="white"/>
<path d="M25 35.8871C31.0128 35.8871 35.8871 31.0128 35.8871 25C35.8871 18.9872 31.0128 14.1129 25 14.1129C18.9872 14.1129 14.1129 18.9872 14.1129 25C14.1129 31.0128 18.9872 35.8871 25 35.8871Z" fill="black"/>
<path d="M25 25L41.5323 8.30645H50V41.5323H41.5323L25 25Z" fill="black"/>
</mask>
<g mask="url(#mask0_10609_517)">
<path d="M25 43.1452C35.0213 43.1452 43.1452 35.0213 43.1452 25C43.1452 14.9787 35.0213 6.85484 25 6.85484C14.9787 6.85484 6.85486 14.9787 6.85486 25C6.85486 35.0213 14.9787 43.1452 25 43.1452Z" fill="url(#paint0_linear_10609_517)"/>
</g>
<path d="M31.0807 29.6774H42.3065V19.3548L39.2742 20.9677L36.6936 19.3548L34.1129 20.9677L31.0807 19.3548V29.6774Z" fill="#E5E552"/>
</g>
<defs>
<linearGradient id="paint0_linear_10609_517" x1="6.81824" y1="6.81818" x2="32.5758" y2="30.303" gradientUnits="userSpaceOnUse">
<stop stop-color="#E64980"/>
<stop offset="1" stop-color="#4259C5"/>
</linearGradient>
<clipPath id="clip0_10609_517">
<rect width="50" height="50" fill="white"/>
</clipPath>
</defs>
</svg>
