<svg width="67" height="67" viewBox="0 0 67 67" fill="none" xmlns="http://www.w3.org/2000/svg">
<g clip-path="url(#clip0_8613_392)">
<path d="M54.0323 0H12.9677C5.80586 0 0 5.80586 0 12.9677V54.0323C0 61.1941 5.80586 67 12.9677 67H54.0323C61.1941 67 67 61.1941 67 54.0323V12.9677C67 5.80586 61.1941 0 54.0323 0Z" fill="white"/>
<path d="M33.4999 57.8145C46.9285 57.8145 57.8145 46.9285 57.8145 33.5C57.8145 20.0715 46.9285 9.18549 33.4999 9.18549C20.0714 9.18549 9.18542 20.0715 9.18542 33.5C9.18542 46.9285 20.0714 57.8145 33.4999 57.8145Z" fill="url(#paint0_linear_8613_392)"/>
<path d="M33.5 48.0887C41.5571 48.0887 48.0887 41.5571 48.0887 33.5C48.0887 25.4429 41.5571 18.9113 33.5 18.9113C25.4428 18.9113 18.9113 25.4429 18.9113 33.5C18.9113 41.5571 25.4428 48.0887 33.5 48.0887Z" fill="white"/>
<path d="M33.5 33.5L55.6532 11.1306H67V55.6532H55.6532L33.5 33.5Z" fill="white"/>
<path d="M41.6481 39.7677H56.6907V25.9355L52.6274 28.0968L49.1694 25.9355L45.7113 28.0968L41.6481 25.9355V39.7677Z" fill="#E5E552"/>
</g>
<defs>
<linearGradient id="paint0_linear_8613_392" x1="9" y1="9" x2="45" y2="39" gradientUnits="userSpaceOnUse">
<stop stop-color="#E64980"/>
<stop offset="1" stop-color="#4259C5"/>
</linearGradient>
<clipPath id="clip0_8613_392">
<rect width="67" height="67" fill="white"/>
</clipPath>
</defs>
</svg>
