<svg width="267" height="42" viewBox="0 0 267 42" fill="none" xmlns="http://www.w3.org/2000/svg">
<path d="M3.38708 35.5645H38.6129V6.7742L29.8064 11.8548L21 6.7742L12.1935 11.8548L3.38708 6.7742V35.5645Z" fill="#E5E552"/>
<path d="M57.6533 33.1328C55.6266 33.1328 53.8133 32.6528 52.2133 31.6928C50.6133 30.7328 49.3466 29.4261 48.4133 27.7728C47.5066 26.1195 47.0533 24.2395 47.0533 22.1328C47.0533 20.0528 47.5066 18.1861 48.4133 16.5328C49.3466 14.8528 50.6133 13.5328 52.2133 12.5728C53.8133 11.6128 55.6266 11.1328 57.6533 11.1328C59.5466 11.1328 61.2799 11.4795 62.8533 12.1728C64.4266 12.8661 65.6533 13.8261 66.5333 15.0528L63.4133 18.8128C63.0399 18.3061 62.5733 17.8528 62.0133 17.4528C61.4533 17.0261 60.8399 16.6928 60.1733 16.4528C59.5333 16.2128 58.8666 16.0928 58.1733 16.0928C57.0799 16.0928 56.1066 16.3595 55.2533 16.8928C54.4266 17.3995 53.7733 18.1061 53.2933 19.0128C52.8133 19.9195 52.5733 20.9595 52.5733 22.1328C52.5733 23.2795 52.8133 24.3061 53.2933 25.2128C53.7999 26.0928 54.4799 26.8128 55.3333 27.3728C56.1866 27.9061 57.1466 28.1728 58.2133 28.1728C58.9066 28.1728 59.5599 28.0795 60.1733 27.8928C60.7866 27.6795 61.3599 27.3728 61.8933 26.9728C62.4533 26.5728 62.9599 26.0928 63.4133 25.5328L66.4933 29.2928C65.5866 30.4395 64.3333 31.3728 62.7333 32.0928C61.1333 32.7861 59.4399 33.1328 57.6533 33.1328ZM79.973 33.1328C77.813 33.1328 75.8796 32.6661 74.173 31.7328C72.493 30.7728 71.1596 29.4661 70.173 27.8128C69.213 26.1595 68.733 24.2661 68.733 22.1328C68.733 19.9995 69.213 18.1195 70.173 16.4928C71.1596 14.8395 72.493 13.5328 74.173 12.5728C75.8796 11.6128 77.813 11.1328 79.973 11.1328C82.1063 11.1328 84.013 11.6128 85.693 12.5728C87.3996 13.5328 88.733 14.8395 89.693 16.4928C90.653 18.1195 91.133 19.9995 91.133 22.1328C91.133 24.2661 90.653 26.1595 89.693 27.8128C88.733 29.4661 87.3996 30.7728 85.693 31.7328C84.013 32.6661 82.1063 33.1328 79.973 33.1328ZM79.973 28.1728C81.013 28.1728 81.9463 27.9195 82.773 27.4128C83.5996 26.8795 84.2396 26.1595 84.693 25.2528C85.173 24.3195 85.413 23.2795 85.413 22.1328C85.413 20.9595 85.173 19.9195 84.693 19.0128C84.2396 18.0795 83.5996 17.3595 82.773 16.8528C81.9463 16.3195 81.013 16.0528 79.973 16.0528C78.9063 16.0528 77.9596 16.3195 77.133 16.8528C76.3063 17.3861 75.653 18.1061 75.173 19.0128C74.693 19.9195 74.4663 20.9595 74.493 22.1328C74.4663 23.2795 74.693 24.3195 75.173 25.2528C75.653 26.1595 76.3063 26.8795 77.133 27.4128C77.9596 27.9195 78.9063 28.1728 79.973 28.1728ZM102.686 33.1328C101.14 33.1328 99.8064 32.7995 98.6864 32.1328C97.5931 31.4395 96.7397 30.4661 96.1264 29.2128C95.5397 27.9328 95.2464 26.3995 95.2464 24.6128V11.5728H100.926V23.6928C100.926 24.6528 101.086 25.4928 101.406 26.2128C101.726 26.9061 102.18 27.4395 102.766 27.8128C103.353 28.1861 104.073 28.3728 104.926 28.3728C105.54 28.3728 106.113 28.2795 106.646 28.0928C107.18 27.8795 107.633 27.5861 108.006 27.2128C108.38 26.8395 108.673 26.3995 108.886 25.8928C109.1 25.3861 109.206 24.8395 109.206 24.2528V11.5728H114.886V32.7328H109.486L109.286 28.3728L110.326 27.8928C110.006 28.8795 109.473 29.7728 108.726 30.5728C107.98 31.3728 107.086 31.9995 106.046 32.4528C105.006 32.9061 103.886 33.1328 102.686 33.1328ZM120.602 32.7328V11.5728H126.082L126.282 18.3728L125.322 16.9728C125.642 15.8795 126.162 14.8928 126.882 14.0128C127.602 13.1061 128.442 12.3995 129.402 11.8928C130.388 11.3861 131.415 11.1328 132.482 11.1328C132.935 11.1328 133.375 11.1728 133.802 11.2528C134.228 11.3328 134.588 11.4261 134.882 11.5328L133.362 17.7728C133.042 17.6128 132.655 17.4795 132.202 17.3728C131.748 17.2395 131.282 17.1728 130.802 17.1728C130.162 17.1728 129.562 17.2928 129.002 17.5328C128.468 17.7461 128.002 18.0661 127.602 18.4928C127.202 18.8928 126.882 19.3728 126.642 19.9328C126.428 20.4928 126.322 21.1061 126.322 21.7728V32.7328H120.602ZM145.261 33.1328C143.287 33.1328 141.527 32.8128 139.981 32.1728C138.461 31.5061 137.234 30.5995 136.301 29.4528L139.821 26.4128C140.647 27.2928 141.567 27.9328 142.581 28.3328C143.594 28.7061 144.607 28.8928 145.621 28.8928C146.021 28.8928 146.381 28.8528 146.701 28.7728C147.047 28.6661 147.341 28.5328 147.581 28.3728C147.821 28.1861 147.994 27.9728 148.101 27.7328C148.234 27.4661 148.301 27.1861 148.301 26.8928C148.301 26.3061 148.061 25.8395 147.581 25.4928C147.314 25.3595 146.901 25.1995 146.341 25.0128C145.781 24.7995 145.061 24.5728 144.181 24.3328C142.821 23.9861 141.661 23.5861 140.701 23.1328C139.767 22.6528 139.021 22.1195 138.461 21.5328C137.981 20.9728 137.607 20.3728 137.341 19.7328C137.101 19.0661 136.981 18.3328 136.981 17.5328C136.981 16.5728 137.194 15.7061 137.621 14.9328C138.047 14.1328 138.634 13.4528 139.381 12.8928C140.154 12.3328 141.034 11.9061 142.021 11.6128C143.007 11.2928 144.047 11.1328 145.141 11.1328C146.234 11.1328 147.301 11.2661 148.341 11.5328C149.381 11.7995 150.341 12.1861 151.221 12.6928C152.127 13.1728 152.914 13.7461 153.581 14.4128L150.541 17.7728C150.061 17.3195 149.514 16.9061 148.901 16.5328C148.314 16.1595 147.701 15.8661 147.061 15.6528C146.421 15.4395 145.847 15.3328 145.341 15.3328C144.887 15.3328 144.474 15.3728 144.101 15.4528C143.754 15.5328 143.461 15.6528 143.221 15.8128C142.981 15.9728 142.794 16.1861 142.661 16.4528C142.554 16.6928 142.501 16.9595 142.501 17.2528C142.501 17.5461 142.567 17.8261 142.701 18.0928C142.861 18.3595 143.074 18.5861 143.341 18.7728C143.634 18.9328 144.061 19.1195 144.621 19.3328C145.207 19.5461 145.994 19.7861 146.981 20.0528C148.261 20.3995 149.341 20.7861 150.221 21.2128C151.127 21.6395 151.847 22.1328 152.381 22.6928C152.834 23.1728 153.167 23.7195 153.381 24.3328C153.594 24.9461 153.701 25.6261 153.701 26.3728C153.701 27.6795 153.327 28.8528 152.581 29.8928C151.861 30.9061 150.861 31.7061 149.581 32.2928C148.301 32.8528 146.861 33.1328 145.261 33.1328ZM167.79 33.1328C165.497 33.1328 163.497 32.6661 161.79 31.7328C160.083 30.7995 158.75 29.5195 157.79 27.8928C156.83 26.2661 156.35 24.3995 156.35 22.2928C156.35 20.6661 156.617 19.1728 157.15 17.8128C157.683 16.4528 158.43 15.2795 159.39 14.2928C160.35 13.2795 161.483 12.5061 162.79 11.9728C164.123 11.4128 165.563 11.1328 167.11 11.1328C168.55 11.1328 169.883 11.3995 171.11 11.9328C172.337 12.4395 173.39 13.1728 174.27 14.1328C175.177 15.0661 175.87 16.1728 176.35 17.4528C176.83 18.7328 177.043 20.1328 176.99 21.6528L176.95 23.4128H159.95L159.03 19.9328H172.27L171.63 20.6528V19.7728C171.577 19.0528 171.337 18.3995 170.91 17.8128C170.51 17.2261 169.99 16.7728 169.35 16.4528C168.71 16.1328 167.99 15.9728 167.19 15.9728C166.017 15.9728 165.017 16.1995 164.19 16.6528C163.39 17.1061 162.777 17.7728 162.35 18.6528C161.923 19.5328 161.71 20.5995 161.71 21.8528C161.71 23.1328 161.977 24.2395 162.51 25.1728C163.07 26.1061 163.843 26.8395 164.83 27.3728C165.843 27.8795 167.03 28.1328 168.39 28.1328C169.323 28.1328 170.177 27.9861 170.95 27.6928C171.723 27.3995 172.55 26.8928 173.43 26.1728L176.15 29.9728C175.377 30.6661 174.523 31.2528 173.59 31.7328C172.657 32.1861 171.697 32.5328 170.71 32.7728C169.723 33.0128 168.75 33.1328 167.79 33.1328ZM181.148 32.7328V11.5728H186.628L186.748 15.6128L185.908 15.7728C186.201 15.0795 186.588 14.4528 187.068 13.8928C187.548 13.3328 188.108 12.8528 188.748 12.4528C189.414 12.0528 190.108 11.7461 190.828 11.5328C191.548 11.2928 192.268 11.1728 192.988 11.1728C194.081 11.1728 195.068 11.3461 195.948 11.6928C196.828 12.0395 197.574 12.5861 198.188 13.3328C198.801 14.0528 199.281 15.0128 199.628 16.2128L198.748 16.1328L199.028 15.4928C199.374 14.8528 199.814 14.2795 200.348 13.7728C200.881 13.2395 201.481 12.7861 202.148 12.4128C202.814 12.0128 203.508 11.7061 204.228 11.4928C204.948 11.2795 205.654 11.1728 206.348 11.1728C208.001 11.1728 209.374 11.5061 210.468 12.1728C211.561 12.8128 212.374 13.7861 212.908 15.0928C213.468 16.3995 213.748 17.9995 213.748 19.8928V32.7328H208.068V20.2928C208.068 19.3328 207.934 18.5461 207.668 17.9328C207.401 17.3195 207.014 16.8661 206.508 16.5728C206.001 16.2528 205.348 16.0928 204.548 16.0928C203.934 16.0928 203.361 16.1995 202.828 16.4128C202.321 16.5995 201.868 16.8795 201.468 17.2528C201.094 17.5995 200.801 18.0128 200.588 18.4928C200.374 18.9728 200.268 19.5061 200.268 20.0928V32.7328H194.588V20.2528C194.588 19.3728 194.441 18.6261 194.148 18.0128C193.881 17.3728 193.494 16.8928 192.988 16.5728C192.481 16.2528 191.854 16.0928 191.108 16.0928C190.494 16.0928 189.921 16.1995 189.388 16.4128C188.881 16.5995 188.441 16.8795 188.068 17.2528C187.694 17.5995 187.388 18.0128 187.148 18.4928C186.934 18.9728 186.828 19.4928 186.828 20.0528V32.7328H181.148ZM227.076 33.1328C225.316 33.1328 223.73 32.6528 222.316 31.6928C220.903 30.7328 219.783 29.4261 218.956 27.7728C218.13 26.1195 217.716 24.2261 217.716 22.0928C217.716 19.9595 218.13 18.0795 218.956 16.4528C219.81 14.7995 220.956 13.5061 222.396 12.5728C223.836 11.6128 225.476 11.1328 227.316 11.1328C228.356 11.1328 229.303 11.2928 230.156 11.6128C231.036 11.9061 231.796 12.3195 232.436 12.8528C233.103 13.3861 233.663 13.9995 234.116 14.6928C234.57 15.3861 234.89 16.1328 235.076 16.9328L233.876 16.7328V11.5728H239.516V32.7328H233.796V27.6528L235.076 27.5328C234.863 28.2795 234.516 28.9861 234.036 29.6528C233.556 30.3195 232.956 30.9195 232.236 31.4528C231.543 31.9595 230.756 32.3728 229.876 32.6928C228.996 32.9861 228.063 33.1328 227.076 33.1328ZM228.636 28.2128C229.703 28.2128 230.636 27.9595 231.436 27.4528C232.236 26.9461 232.85 26.2395 233.276 25.3328C233.73 24.3995 233.956 23.3195 233.956 22.0928C233.956 20.8928 233.73 19.8395 233.276 18.9328C232.85 18.0261 232.236 17.3195 231.436 16.8128C230.636 16.2795 229.703 16.0128 228.636 16.0128C227.596 16.0128 226.676 16.2795 225.876 16.8128C225.103 17.3195 224.49 18.0261 224.036 18.9328C223.583 19.8395 223.356 20.8928 223.356 22.0928C223.356 23.3195 223.583 24.3995 224.036 25.3328C224.49 26.2395 225.103 26.9461 225.876 27.4528C226.676 27.9595 227.596 28.2128 228.636 28.2128ZM245.211 41.5328V11.5728H250.691L250.851 16.3328L249.811 15.9728C249.998 15.1195 250.451 14.3328 251.171 13.6128C251.918 12.8928 252.838 12.3061 253.931 11.8528C255.024 11.3995 256.171 11.1728 257.371 11.1728C259.211 11.1728 260.838 11.6528 262.251 12.6128C263.691 13.5461 264.824 14.8395 265.651 16.4928C266.504 18.1195 266.931 19.9995 266.931 22.1328C266.931 24.2395 266.518 26.1195 265.691 27.7728C264.864 29.4261 263.731 30.7328 262.291 31.6928C260.851 32.6261 259.211 33.0928 257.371 33.0928C256.144 33.0928 254.971 32.8661 253.851 32.4128C252.758 31.9328 251.824 31.3061 251.051 30.5328C250.278 29.7595 249.798 28.9328 249.611 28.0528L250.931 27.4928V41.5328H245.211ZM256.091 28.2128C257.131 28.2128 258.051 27.9595 258.851 27.4528C259.651 26.9461 260.278 26.2395 260.731 25.3328C261.184 24.3995 261.411 23.3328 261.411 22.1328C261.411 20.9328 261.184 19.8795 260.731 18.9728C260.278 18.0661 259.651 17.3595 258.851 16.8528C258.078 16.3461 257.158 16.0928 256.091 16.0928C255.024 16.0928 254.091 16.3461 253.291 16.8528C252.491 17.3328 251.864 18.0395 251.411 18.9728C250.958 19.8795 250.731 20.9328 250.731 22.1328C250.731 23.3328 250.958 24.3995 251.411 25.3328C251.864 26.2395 252.491 26.9461 253.291 27.4528C254.091 27.9595 255.024 28.2128 256.091 28.2128Z" fill="url(#paint0_linear_10612_536)"/>
<defs>
<linearGradient id="paint0_linear_10612_536" x1="121" y1="-27.2672" x2="193.5" y2="71.2328" gradientUnits="userSpaceOnUse">
<stop stop-color="#E64980"/>
<stop offset="1" stop-color="#6A7DD7"/>
</linearGradient>
</defs>
</svg>
